
        <svg xmlns="http://www.w3.org/2000/svg" xmlns:xlink="http://www.w3.org/1999/xlink" version="1.1" width="3272.727272727273" height="1922.5825249910647" viewBox="0 0 3272.727272727273 1922.5825249910647">
			
			<g transform="scale(13.636363636363637) translate(10, 10)">
				<defs id="SvgjsDefs6492"><linearGradient id="SvgjsLinearGradient6497"><stop id="SvgjsStop6498" stop-color="#b88746" offset="0"/><stop id="SvgjsStop6499" stop-color="#fdf5a6" offset="1"/></linearGradient><linearGradient id="SvgjsLinearGradient6500"><stop id="SvgjsStop6501" stop-color="#b88746" offset="0"/><stop id="SvgjsStop6502" stop-color="#fdf5a6" offset="1"/></linearGradient></defs><g id="SvgjsG6493" featureKey="symbolFeature-0" transform="matrix(1.1189285778188136,0,0,1.1189285778188136,54.65357110905932,-16.346427823847232)" fill="#fff"><path xmlns="http://www.w3.org/2000/svg" d="M50.539,60.453h13.455v-3.617H50.539V60.453z M41.28,40.07l-2.549,2.566l7.415,7.361l-7.415,7.363l2.549,2.566l9.999-9.93  L41.28,40.07z M50,14.609c-19.515,0-35.391,15.876-35.391,35.391S30.485,85.391,50,85.391S85.391,69.515,85.391,50  S69.515,14.609,50,14.609z M50,81.773c-17.521,0-31.773-14.253-31.773-31.773S32.479,18.227,50,18.227S81.773,32.479,81.773,50  S67.521,81.773,50,81.773z"/></g><g id="SvgjsG6494" featureKey="nameFeature-0" transform="matrix(0.7540962171022523,0,0,0.7540962171022523,-0.9953611096437296,90.61439118082248)" fill="#fff"><path d="M10.6 18.88 c1.3867 0 2.6332 0.19324 3.7399 0.57992 s2.0334 1.0134 2.78 1.88 s1.32 1.98 1.72 3.34 s0.6 3 0.6 4.92 l0 0.62 l-0.08 1.26 l-11.2 0 l-0.84 -0.12 c0.02668 0.77332 0.11336 1.3933 0.26004 1.86 s0.36 0.83336 0.64 1.1 s0.62 0.45336 1.02 0.56004 s0.85332 0.17336 1.36 0.20004 c0.82668 0.05332 1.54 -0.06668 2.14 -0.36 s1.1667 -0.89332 1.7 -1.8 c0.82668 0.26668 1.5867 0.52 2.28 0.76 c0.58668 0.21332 1.12 0.4 1.6 0.56 s0.72 0.22668 0.72 0.2 c-0.96 2 -2.1267 3.46 -3.5 4.38 s-3.02 1.38 -4.94 1.38 c-1.4133 0 -2.6933 -0.18668 -3.84 -0.56 s-2.12 -0.98 -2.92 -1.82 s-1.42 -1.9333 -1.86 -3.28 s-0.66 -2.9934 -0.66 -4.94 c0 -1.8933 0.22 -3.5133 0.66 -4.86 s1.06 -2.4534 1.86 -3.32 s1.7733 -1.5067 2.92 -1.92 s2.4267 -0.62 3.84 -0.62 z M12.8 26.880000000000003 l0.60008 0.08 c-0.05332 -0.93332 -0.3 -1.66 -0.74 -2.18 s-1.1267 -0.78 -2.06 -0.78 c-1.0667 0 -1.8334 0.26 -2.3 0.78 s-0.75336 1.2467 -0.86004 2.18 c0.13332 -0.02668 0.25332 -0.04668 0.36 -0.06 s0.22668 -0.02 0.36 -0.02 l4.64 0 z M28.53 31.36 c-1.44 -0.42668 -2.6266 -1.08 -3.56 -1.96 s-1.4 -2.1467 -1.4 -3.8 c0 -2.08 0.73332 -3.7067 2.2 -4.88 s3.4934 -1.76 6.08 -1.76 c0.98668 0 2.0067 0.10668 3.06 0.32 s2.3666 0.6 3.94 1.16 l-2.4 4.32 c-0.82668 -0.29332 -1.54 -0.51332 -2.14 -0.66 s-1.2867 -0.22 -2.06 -0.22 c-0.72 0 -1.2867 0.1 -1.7 0.3 s-0.62 0.52668 -0.62 0.98 c0 0.37332 0.15332 0.64 0.46 0.8 s0.71336 0.33332 1.22 0.52 l2.16 0.64 c0.72 0.21332 1.3933 0.46664 2.02 0.75996 s1.16 0.66 1.6 1.1 s0.78668 0.99332 1.04 1.66 s0.38 1.48 0.38 2.44 c0 1.0133 -0.20668 1.9533 -0.62 2.82 s-1.0133 1.62 -1.8 2.26 s-1.7467 1.14 -2.88 1.5 s-2.42 0.54 -3.86 0.54 c-0.56 0 -1.1 -0.02 -1.62 -0.06 s-1.0333 -0.10668 -1.54 -0.2 s-1.04 -0.22 -1.6 -0.38 s-1.16 -0.34668 -1.8 -0.56 c0.05332 -0.18668 0.10664 -0.4 0.15996 -0.64 s0.13332 -0.54 0.24 -0.9 s0.22668 -0.79332 0.36 -1.3 s0.30664 -1.1334 0.51996 -1.88 c1.12 0.29332 2.06 0.50664 2.82 0.63996 s1.5267 0.2 2.3 0.2 c0.32 0 0.66 -0.02668 1.02 -0.08 s0.7 -0.14664 1.02 -0.27996 s0.58668 -0.30664 0.8 -0.51996 s0.32 -0.49332 0.32 -0.84 c0 -0.4 -0.14 -0.68 -0.42 -0.84 s-0.7 -0.33332 -1.26 -0.52 z M46.86 31.36 c-1.44 -0.42668 -2.6266 -1.08 -3.56 -1.96 s-1.4 -2.1467 -1.4 -3.8 c0 -2.08 0.73332 -3.7067 2.2 -4.88 s3.4934 -1.76 6.08 -1.76 c0.98668 0 2.0067 0.10668 3.06 0.32 s2.3666 0.6 3.94 1.16 l-2.4 4.32 c-0.82668 -0.29332 -1.54 -0.51332 -2.14 -0.66 s-1.2867 -0.22 -2.06 -0.22 c-0.72 0 -1.2867 0.1 -1.7 0.3 s-0.62 0.52668 -0.62 0.98 c0 0.37332 0.15332 0.64 0.46 0.8 s0.71336 0.33332 1.22 0.52 l2.16 0.64 c0.72 0.21332 1.3933 0.46664 2.02 0.75996 s1.16 0.66 1.6 1.1 s0.78668 0.99332 1.04 1.66 s0.38 1.48 0.38 2.44 c0 1.0133 -0.20668 1.9533 -0.62 2.82 s-1.0133 1.62 -1.8 2.26 s-1.7467 1.14 -2.88 1.5 s-2.42 0.54 -3.86 0.54 c-0.56 0 -1.1 -0.02 -1.62 -0.06 s-1.0333 -0.10668 -1.54 -0.2 s-1.04 -0.22 -1.6 -0.38 s-1.16 -0.34668 -1.8 -0.56 c0.05332 -0.18668 0.10664 -0.4 0.15996 -0.64 s0.13332 -0.54 0.24 -0.9 s0.22668 -0.79332 0.36 -1.3 s0.30664 -1.1334 0.51996 -1.88 c1.12 0.29332 2.06 0.50664 2.82 0.63996 s1.5267 0.2 2.3 0.2 c0.32 0 0.66 -0.02668 1.02 -0.08 s0.7 -0.14664 1.02 -0.27996 s0.58668 -0.30664 0.8 -0.51996 s0.32 -0.49332 0.32 -0.84 c0 -0.4 -0.14 -0.68 -0.42 -0.84 s-0.7 -0.33332 -1.26 -0.52 z M70.07 18.88 c1.3867 0 2.6332 0.19324 3.7399 0.57992 s2.0334 1.0134 2.78 1.88 s1.32 1.98 1.72 3.34 s0.6 3 0.6 4.92 l0 0.62 l-0.08 1.26 l-11.2 0 l-0.84 -0.12 c0.02668 0.77332 0.11336 1.3933 0.26004 1.86 s0.36 0.83336 0.64 1.1 s0.62 0.45336 1.02 0.56004 s0.85332 0.17336 1.36 0.20004 c0.82668 0.05332 1.54 -0.06668 2.14 -0.36 s1.1667 -0.89332 1.7 -1.8 c0.82668 0.26668 1.5867 0.52 2.28 0.76 c0.58668 0.21332 1.12 0.4 1.6 0.56 s0.72 0.22668 0.72 0.2 c-0.96 2 -2.1267 3.46 -3.5 4.38 s-3.02 1.38 -4.94 1.38 c-1.4133 0 -2.6933 -0.18668 -3.84 -0.56 s-2.12 -0.98 -2.92 -1.82 s-1.42 -1.9333 -1.86 -3.28 s-0.66 -2.9934 -0.66 -4.94 c0 -1.8933 0.22 -3.5133 0.66 -4.86 s1.06 -2.4534 1.86 -3.32 s1.7733 -1.5067 2.92 -1.92 s2.4267 -0.62 3.84 -0.62 z M72.27 26.880000000000003 l0.60008 0.08 c-0.05332 -0.93332 -0.3 -1.66 -0.74 -2.18 s-1.1267 -0.78 -2.06 -0.78 c-1.0667 0 -1.8334 0.26 -2.3 0.78 s-0.75336 1.2467 -0.86004 2.18 c0.13332 -0.02668 0.25332 -0.04668 0.36 -0.06 s0.22668 -0.02 0.36 -0.02 l4.64 0 z M84.32000000000001 24.08 l-3.36 0 l2.64 -4.96 l5.8 0 l0.52 2.24 c0.66668 -0.72 1.46 -1.32 2.38 -1.8 s1.98 -0.72 3.18 -0.72 c2.4267 0 4.2268 0.64668 5.4 1.94 s1.76 3.34 1.76 6.14 l0 13.08 l-6.08 0 l0 -12.04 c0 -1.2267 -0.3 -2.1067 -0.9 -2.64 s-1.3667 -0.8 -2.3 -0.8 c-0.77332 0 -1.4666 0.26 -2.08 0.78 s-0.92 1.38 -0.92 2.58 l0 12.12 l-6.04 0 l0 -15.92 z M124.81 37.76 c-1.0667 0.85332 -2.2133 1.4867 -3.44 1.9 s-2.48 0.62 -3.76 0.62 c-1.3867 0 -2.6934 -0.18668 -3.92 -0.56 s-2.3 -0.98 -3.22 -1.82 s-1.6467 -1.9333 -2.18 -3.28 s-0.8 -2.98 -0.8 -4.9 c0 -1.8933 0.26668 -3.5133 0.8 -4.86 s1.26 -2.4534 2.18 -3.32 s1.9933 -1.5067 3.22 -1.92 s2.5334 -0.62 3.92 -0.62 c0.85332 0 1.7866 0.12 2.8 0.36 s2.0266 0.6 3.04 1.08 l-2.64 4.32 c-0.45332 -0.21332 -0.98664 -0.36664 -1.6 -0.45996 s-1.1466 -0.14 -1.6 -0.14 c-1.2267 0 -2.2467 0.43332 -3.06 1.3 s-1.22 2.2867 -1.22 4.26 c0 1.0133 0.10668 1.84 0.32 2.48 s0.51332 1.16 0.9 1.56 s0.84 0.69332 1.36 0.88 s1.0867 0.30668 1.7 0.36 c0.82668 0.08 1.6467 0.01332 2.46 -0.2 s1.54 -0.56 2.18 -1.04 z M135.9 18.88 c1.3867 0 2.6332 0.19324 3.7399 0.57992 s2.0334 1.0134 2.78 1.88 s1.32 1.98 1.72 3.34 s0.6 3 0.6 4.92 l0 0.62 l-0.08 1.26 l-11.2 0 l-0.84 -0.12 c0.02668 0.77332 0.11336 1.3933 0.26004 1.86 s0.36 0.83336 0.64 1.1 s0.62 0.45336 1.02 0.56004 s0.85332 0.17336 1.36 0.20004 c0.82668 0.05332 1.54 -0.06668 2.14 -0.36 s1.1667 -0.89332 1.7 -1.8 c0.82668 0.26668 1.5867 0.52 2.28 0.76 c0.58668 0.21332 1.12 0.4 1.6 0.56 s0.72 0.22668 0.72 0.2 c-0.96 2 -2.1267 3.46 -3.5 4.38 s-3.02 1.38 -4.94 1.38 c-1.4133 0 -2.6933 -0.18668 -3.84 -0.56 s-2.12 -0.98 -2.92 -1.82 s-1.42 -1.9333 -1.86 -3.28 s-0.66 -2.9934 -0.66 -4.94 c0 -1.8933 0.22 -3.5133 0.66 -4.86 s1.06 -2.4534 1.86 -3.32 s1.7733 -1.5067 2.92 -1.92 s2.4267 -0.62 3.84 -0.62 z M138.10000000000002 26.880000000000003 l0.60008 0.08 c-0.05332 -0.93332 -0.3 -1.66 -0.74 -2.18 s-1.1267 -0.78 -2.06 -0.78 c-1.0667 0 -1.8334 0.26 -2.3 0.78 s-0.75336 1.2467 -0.86004 2.18 c0.13332 -0.02668 0.25332 -0.04668 0.36 -0.06 s0.22668 -0.02 0.36 -0.02 l4.64 0 z M169.64000000000001 18.88 c1.3867 0 2.68 0.19336 3.88 0.58004 s2.2333 1.0067 3.1 1.86 s1.5467 1.96 2.04 3.32 s0.74 3 0.74 4.92 s-0.24668 3.56 -0.74 4.92 s-1.1733 2.4667 -2.04 3.32 s-1.9 1.4733 -3.1 1.86 s-2.4933 0.58 -3.88 0.58 c-1.4133 0 -2.7133 -0.19332 -3.9 -0.58 s-2.2134 -1.0067 -3.08 -1.86 s-1.5467 -1.96 -2.04 -3.32 s-0.74 -3 -0.74 -4.92 c0 -1.8933 0.24668 -3.5133 0.74 -4.86 s1.1733 -2.4534 2.04 -3.32 s1.8934 -1.5 3.08 -1.9 s2.4867 -0.6 3.9 -0.6 z M169.64000000000001 35 c1.2 0 2.14 -0.4 2.82 -1.2 s1.02 -2.2133 1.02 -4.24 s-0.34 -3.4467 -1.02 -4.26 s-1.62 -1.22 -2.82 -1.22 c-1.1733 0 -2.1133 0.42 -2.82 1.26 s-1.06 2.2467 -1.06 4.22 c0 2.0267 0.34668 3.44 1.04 4.24 s1.64 1.2 2.84 1.2 z M184.69 24.119999999999997 l-3.12 0.000078124 l0 -5.04 l3.12 0 l0 -0.68 c0.05332 -0.98668 0.25332 -1.9334 0.6 -2.84 s0.86668 -1.6667 1.56 -2.28 c1.44 -1.44 3.4133 -2.16 5.92 -2.16 c0.72 0 1.3933 0.04668 2.02 0.14 s1.3934 0.28664 2.3 0.57996 l-0.4 0.68 l-0.88 1.48 l-0.88 1.48 l-0.4 0.68 l-1 0 c-0.85332 0 -1.5333 0.17332 -2.04 0.52 s-0.76 0.92 -0.76 1.72 l0 0.68 l5.2 0 l-2.72 5.04 l-2.64 0 l0.16 1.12 l0 14.76 l-6.04 0 l0 -15.88 z M227.51 37.76 c-1.0667 0.85332 -2.2133 1.4867 -3.44 1.9 s-2.48 0.62 -3.76 0.62 c-1.3867 0 -2.6934 -0.18668 -3.92 -0.56 s-2.3 -0.98 -3.22 -1.82 s-1.6467 -1.9333 -2.18 -3.28 s-0.8 -2.98 -0.8 -4.9 c0 -1.8933 0.26668 -3.5133 0.8 -4.86 s1.26 -2.4534 2.18 -3.32 s1.9933 -1.5067 3.22 -1.92 s2.5334 -0.62 3.92 -0.62 c0.85332 0 1.7866 0.12 2.8 0.36 s2.0266 0.6 3.04 1.08 l-2.64 4.32 c-0.45332 -0.21332 -0.98664 -0.36664 -1.6 -0.45996 s-1.1466 -0.14 -1.6 -0.14 c-1.2267 0 -2.2467 0.43332 -3.06 1.3 s-1.22 2.2867 -1.22 4.26 c0 1.0133 0.10668 1.84 0.32 2.48 s0.51332 1.16 0.9 1.56 s0.84 0.69332 1.36 0.88 s1.0867 0.30668 1.7 0.36 c0.82668 0.08 1.6467 0.01332 2.46 -0.2 s1.54 -0.56 2.18 -1.04 z M239.11999999999998 18.88 c1.3867 0 2.68 0.19336 3.88 0.58004 s2.2333 1.0067 3.1 1.86 s1.5467 1.96 2.04 3.32 s0.74 3 0.74 4.92 s-0.24668 3.56 -0.74 4.92 s-1.1733 2.4667 -2.04 3.32 s-1.9 1.4733 -3.1 1.86 s-2.4933 0.58 -3.88 0.58 c-1.4133 0 -2.7133 -0.19332 -3.9 -0.58 s-2.2134 -1.0067 -3.08 -1.86 s-1.5467 -1.96 -2.04 -3.32 s-0.74 -3 -0.74 -4.92 c0 -1.8933 0.24668 -3.5133 0.74 -4.86 s1.1733 -2.4534 2.04 -3.32 s1.8934 -1.5 3.08 -1.9 s2.4867 -0.6 3.9 -0.6 z M239.11999999999998 35 c1.2 0 2.14 -0.4 2.82 -1.2 s1.02 -2.2133 1.02 -4.24 s-0.34 -3.4467 -1.02 -4.26 s-1.62 -1.22 -2.82 -1.22 c-1.1733 0 -2.1133 0.42 -2.82 1.26 s-1.06 2.2467 -1.06 4.22 c0 2.0267 0.34668 3.44 1.04 4.24 s1.64 1.2 2.84 1.2 z M270.40999999999997 11.96 l0.000039062 27.48 c-0.96 0.21332 -1.8933 0.37332 -2.8 0.48 s-1.7334 0.18668 -2.48 0.24 s-1.3867 0.08 -1.92 0.08 l-1.08 0 c-1.8133 0 -3.34 -0.28 -4.58 -0.84 s-2.24 -1.32 -3 -2.28 s-1.3133 -2.0733 -1.66 -3.34 s-0.52 -2.62 -0.52 -4.06 c0 -1.84 0.23332 -3.42 0.7 -4.74 s1.12 -2.4067 1.96 -3.26 s1.84 -1.4866 3 -1.9 s2.4467 -0.62 3.86 -0.62 c0.24 0 0.51332 0.02 0.82 0.06 s0.6 0.08668 0.88 0.14 s0.54 0.11332 0.78 0.18 s0.42668 0.14 0.56 0.22 l0 -2.36 l0.12 -0.52 l-3.6 0 l2.68 -4.96 l6.28 0 z M262.77 34.88 c0.4 0 0.78668 -0.01332 1.16 -0.04 s0.70664 -0.06668 0.99996 -0.12 l0 -10.24 c-0.18668 -0.02668 -0.4 -0.06668 -0.64 -0.12 c-0.21332 -0.05332 -0.46 -0.09332 -0.74 -0.12 s-0.59332 -0.04 -0.94 -0.04 c-1.2533 0 -2.3066 0.42668 -3.16 1.28 s-1.28 2.2666 -1.28 4.24 c0 0.98668 0.12 1.8134 0.36 2.48 s0.56668 1.2 0.98 1.6 s0.9 0.68 1.46 0.84 s1.16 0.24 1.8 0.24 z M284.21999999999997 18.88 c1.3867 0 2.6332 0.19324 3.7399 0.57992 s2.0334 1.0134 2.78 1.88 s1.32 1.98 1.72 3.34 s0.6 3 0.6 4.92 l0 0.62 l-0.08 1.26 l-11.2 0 l-0.84 -0.12 c0.02668 0.77332 0.11336 1.3933 0.26004 1.86 s0.36 0.83336 0.64 1.1 s0.62 0.45336 1.02 0.56004 s0.85332 0.17336 1.36 0.20004 c0.82668 0.05332 1.54 -0.06668 2.14 -0.36 s1.1667 -0.89332 1.7 -1.8 c0.82668 0.26668 1.5867 0.52 2.28 0.76 c0.58668 0.21332 1.12 0.4 1.6 0.56 s0.72 0.22668 0.72 0.2 c-0.96 2 -2.1267 3.46 -3.5 4.38 s-3.02 1.38 -4.94 1.38 c-1.4133 0 -2.6933 -0.18668 -3.84 -0.56 s-2.12 -0.98 -2.92 -1.82 s-1.42 -1.9333 -1.86 -3.28 s-0.66 -2.9934 -0.66 -4.94 c0 -1.8933 0.22 -3.5133 0.66 -4.86 s1.06 -2.4534 1.86 -3.32 s1.7733 -1.5067 2.92 -1.92 s2.4267 -0.62 3.84 -0.62 z M286.41999999999996 26.880000000000003 l0.60008 0.08 c-0.05332 -0.93332 -0.3 -1.66 -0.74 -2.18 s-1.1267 -0.78 -2.06 -0.78 c-1.0667 0 -1.8334 0.26 -2.3 0.78 s-0.75336 1.2467 -0.86004 2.18 c0.13332 -0.02668 0.25332 -0.04668 0.36 -0.06 s0.22668 -0.02 0.36 -0.02 l4.64 0 z"/></g>
			</g>
		</svg>
	